HIERARCHY
ROOT Hips
{
	OFFSET 0.125245 88.705444 4.790124
	CHANNELS 6 Xposition Yposition Zposition Zrotation Yrotation Xrotation 
	JOINT Spine
	{
		OFFSET -0.000000 8.814246 -2.080107
		CHANNELS 3 Zrotation Yrotation Xrotation
		JOINT Spine1
		{
			OFFSET 0.000000 8.844141 0.000000
			CHANNELS 3 Zrotation Yrotation Xrotation
			JOINT Spine2
			{
				OFFSET 0.000000 11.682268 -0.000000
				CHANNELS 3 Zrotation Yrotation Xrotation
				JOINT Spine3
				{
					OFFSET -0.000000 11.746700 -0.000000
					CHANNELS 3 Zrotation Yrotation Xrotation
					JOINT Neck
					{
						OFFSET 0.000000 17.658264 -0.000000
						CHANNELS 3 Zrotation Yrotation Xrotation
						JOINT Neck1
						{
							OFFSET -0.000000 5.101515 -0.000000
							CHANNELS 3 Zrotation Yrotation Xrotation
							JOINT Head
							{
								OFFSET 0.000000 5.101515 -0.000000
								CHANNELS 3 Zrotation Yrotation Xrotation
								JOINT HeadEnd
								{
									OFFSET 0.000000 11.655085 0.000000
									CHANNELS 3 Zrotation Yrotation Xrotation
									End Site
									{
										OFFSET 0.000000 0.000000 0.000000
									}
								}
							}
						}
					}
					JOINT RightShoulder
					{
						OFFSET -2.625389 11.175210 0.000000
						CHANNELS 3 Zrotation Yrotation Xrotation
						JOINT RightArm
						{
							OFFSET -0.000000 10.434715 -0.000000
							CHANNELS 3 Zrotation Yrotation Xrotation
							JOINT RightForeArm
							{
								OFFSET 0.000000 29.628420 -0.000000
								CHANNELS 3 Zrotation Yrotation Xrotation
								JOINT RightHand
								{
									OFFSET 0.000000 22.857611 -0.000000
									CHANNELS 3 Zrotation Yrotation Xrotation
									JOINT RightHandThumb1
									{
										OFFSET -2.867323 3.959563 2.944291
										CHANNELS 3 Zrotation Yrotation Xrotation
										JOINT RightHandThumb2
										{
											OFFSET 0.000000 3.350399 -0.000000
											CHANNELS 3 Zrotation Yrotation Xrotation
											JOINT RightHandThumb3
											{
												OFFSET -0.000000 3.756509 0.000000
												CHANNELS 3 Zrotation Yrotation Xrotation
												JOINT RightHandThumb4
												{
													OFFSET 0.000000 3.147345 -0.000000
													CHANNELS 3 Zrotation Yrotation Xrotation
													End Site
													{
														OFFSET 0.000000 0.000000 0.000000
													}
												}
											}
										}
									}
									JOINT RightHandIndex1
									{
										OFFSET -0.086752 10.030893 2.345280
										CHANNELS 3 Zrotation Yrotation Xrotation
										JOINT RightHandIndex2
										{
											OFFSET 0.000000 4.061090 -0.000000
											CHANNELS 3 Zrotation Yrotation Xrotation
											JOINT RightHandIndex3
											{
												OFFSET -0.000000 3.248873 -0.000000
												CHANNELS 3 Zrotation Yrotation Xrotation
												JOINT RightHandIndex4
												{
													OFFSET -0.000000 2.639709 -0.000000
													CHANNELS 3 Zrotation Yrotation Xrotation
													End Site
													{
														OFFSET 0.000000 0.000000 0.000000
													}
												}
											}
										}
									}
									JOINT RightHandMiddle1
									{
										OFFSET 0.104102 9.502952 0.006768
										CHANNELS 3 Zrotation Yrotation Xrotation
										JOINT RightHandMiddle2
										{
											OFFSET -0.000000 4.568727 -0.000000
											CHANNELS 3 Zrotation Yrotation Xrotation
											JOINT RightHandMiddle3
											{
												OFFSET 0.000000 3.654981 -0.000000
												CHANNELS 3 Zrotation Yrotation Xrotation
												JOINT RightHandMiddle4
												{
													OFFSET 0.000000 2.741236 -0.000000
													CHANNELS 3 Zrotation Yrotation Xrotation
													End Site
													{
														OFFSET 0.000000 0.000000 0.000000
													}
												}
											}
										}
									}
									JOINT RightHandRing1
									{
										OFFSET 0.086752 8.921708 -2.267442
										CHANNELS 3 Zrotation Yrotation Xrotation
										JOINT RightHandRing2
										{
											OFFSET 0.000000 4.061090 -0.000000
											CHANNELS 3 Zrotation Yrotation Xrotation
											JOINT RightHandRing3
											{
												OFFSET 0.000000 3.654981 -0.000000
												CHANNELS 3 Zrotation Yrotation Xrotation
												JOINT RightHandRing4
												{
													OFFSET -0.000000 2.741236 0.000000
													CHANNELS 3 Zrotation Yrotation Xrotation
													End Site
													{
														OFFSET 0.000000 0.000000 0.000000
													}
												}
											}
										}
									}
									JOINT RightHandPinky1
									{
										OFFSET -0.173504 7.976997 -4.467199
										CHANNELS 3 Zrotation Yrotation Xrotation
										JOINT RightHandPinky2
										{
											OFFSET 0.000000 3.350399 -0.000000
											CHANNELS 3 Zrotation Yrotation Xrotation
											JOINT RightHandPinky3
											{
												OFFSET 0.000000 2.842763 -0.000000
												CHANNELS 3 Zrotation Yrotation Xrotation
												JOINT RightHandPinky4
												{
													OFFSET 0.000000 2.639709 0.000000
													CHANNELS 3 Zrotation Yrotation Xrotation
													End Site
													{
														OFFSET 0.000000 0.000000 0.000000
													}
												}
											}
										}
									}
									JOINT RightForeArmEnd
									{
										OFFSET 0.000000 0.000000 0.000000
										CHANNELS 3 Zrotation Yrotation Xrotation
										End Site
										{
											OFFSET 0.000000 0.000000 0.000000
										}
									}
								}
								JOINT RightArmEnd
								{
									OFFSET 0.000000 0.000000 0.000000
									CHANNELS 3 Zrotation Yrotation Xrotation
									End Site
									{
										OFFSET 0.000000 0.000000 0.000000
									}
								}
							}
						}
					}
					JOINT LeftShoulder
					{
						OFFSET 2.625389 11.175210 -0.000000
						CHANNELS 3 Zrotation Yrotation Xrotation
						JOINT LeftArm
						{
							OFFSET -0.000000 10.813635 -0.000000
							CHANNELS 3 Zrotation Yrotation Xrotation
							JOINT LeftForeArm
							{
								OFFSET -0.000000 28.724781 0.000000
								CHANNELS 3 Zrotation Yrotation Xrotation
								JOINT LeftHand
								{
									OFFSET 0.644384 25.716167 -0.328871
									CHANNELS 3 Zrotation Yrotation Xrotation
									JOINT LeftHandThumb1
									{
										OFFSET 2.867323 3.959563 2.944291
										CHANNELS 3 Zrotation Yrotation Xrotation
										JOINT LeftHandThumb2
										{
											OFFSET 0.000000 3.350399 -0.000000
											CHANNELS 3 Zrotation Yrotation Xrotation
											JOINT LeftHandThumb3
											{
												OFFSET -0.000000 3.756509 -0.000000
												CHANNELS 3 Zrotation Yrotation Xrotation
												JOINT LeftHandThumb4
												{
													OFFSET 0.000000 3.100000 -0.000000
													CHANNELS 3 Zrotation Yrotation Xrotation
													End Site
													{
														OFFSET 0.000000 0.000000 0.000000
													}
												}
											}
										}
									}
									JOINT LeftHandIndex1
									{
										OFFSET 0.086752 10.030893 2.345280
										CHANNELS 3 Zrotation Yrotation Xrotation
										JOINT LeftHandIndex2
										{
											OFFSET -0.000000 4.061090 0.000000
											CHANNELS 3 Zrotation Yrotation Xrotation
											JOINT LeftHandIndex3
											{
												OFFSET 0.000000 3.248873 0.000000
												CHANNELS 3 Zrotation Yrotation Xrotation
												JOINT LeftHandIndex4
												{
													OFFSET -0.000000 2.639709 -0.000000
													CHANNELS 3 Zrotation Yrotation Xrotation
													End Site
													{
														OFFSET 0.000000 0.000000 0.000000
													}
												}
											}
										}
									}
									JOINT LeftHandMiddle1
									{
										OFFSET -0.104102 9.502952 0.006768
										CHANNELS 3 Zrotation Yrotation Xrotation
										JOINT LeftHandMiddle2
										{
											OFFSET -0.000000 4.568727 -0.000000
											CHANNELS 3 Zrotation Yrotation Xrotation
											JOINT LeftHandMiddle3
											{
												OFFSET -0.000000 3.654981 -0.000000
												CHANNELS 3 Zrotation Yrotation Xrotation
												JOINT LeftHandMiddle4
												{
													OFFSET -0.000000 2.741236 -0.000000
													CHANNELS 3 Zrotation Yrotation Xrotation
													End Site
													{
														OFFSET 0.000000 0.000000 0.000000
													}
												}
											}
										}
									}
									JOINT LeftHandRing1
									{
										OFFSET -0.086752 8.921708 -2.267442
										CHANNELS 3 Zrotation Yrotation Xrotation
										JOINT LeftHandRing2
										{
											OFFSET 0.000000 4.061090 -0.000000
											CHANNELS 3 Zrotation Yrotation Xrotation
											JOINT LeftHandRing3
											{
												OFFSET -0.000000 3.654981 -0.000000
												CHANNELS 3 Zrotation Yrotation Xrotation
												JOINT LeftHandRing4
												{
													OFFSET 0.000000 2.741236 0.000000
													CHANNELS 3 Zrotation Yrotation Xrotation
													End Site
													{
														OFFSET 0.000000 0.000000 0.000000
													}
												}
											}
										}
									}
									JOINT LeftHandPinky1
									{
										OFFSET 0.173504 7.976997 -4.467199
										CHANNELS 3 Zrotation Yrotation Xrotation
										JOINT LeftHandPinky2
										{
											OFFSET -0.000000 3.350399 -0.000000
											CHANNELS 3 Zrotation Yrotation Xrotation
											JOINT LeftHandPinky3
											{
												OFFSET -0.000000 2.842763 -0.000000
												CHANNELS 3 Zrotation Yrotation Xrotation
												JOINT LeftHandPinky4
												{
													OFFSET -0.000000 2.639709 0.000000
													CHANNELS 3 Zrotation Yrotation Xrotation
													End Site
													{
														OFFSET 0.000000 0.000000 0.000000
													}
												}
											}
										}
									}
									JOINT LeftForeArmEnd
									{
										OFFSET 0.000000 0.000000 0.000000
										CHANNELS 3 Zrotation Yrotation Xrotation
										End Site
										{
											OFFSET 0.000000 0.000000 0.000000
										}
									}
								}
								JOINT LeftArmEnd
								{
									OFFSET 0.000000 0.000000 0.000000
									CHANNELS 3 Zrotation Yrotation Xrotation
									End Site
									{
										OFFSET 0.000000 0.000000 0.000000
									}
								}
							}
						}
					}
				}
			}
		}
	}
	JOINT RightUpLeg
	{
		OFFSET -11.289943 0.000000 -0.000000
		CHANNELS 3 Zrotation Yrotation Xrotation
		JOINT RightLeg
		{
			OFFSET -0.000000 -38.200325 -0.000000
			CHANNELS 3 Zrotation Yrotation Xrotation
			JOINT RightFoot
			{
				OFFSET -0.000000 -39.900856 0.000000
				CHANNELS 3 Zrotation Yrotation Xrotation
				JOINT RightToeBase
				{
					OFFSET -0.000000 -0.000000 15.261641
					CHANNELS 3 Zrotation Yrotation Xrotation
					JOINT RightToeBaseEnd
					{
						OFFSET -0.000000 0.000000 7.370709
						CHANNELS 3 Zrotation Yrotation Xrotation
						End Site
						{
							OFFSET 0.000000 0.000000 0.000000
						}
					}
				}
				JOINT RightLegEnd
				{
					OFFSET 0.000000 0.000000 0.000000
					CHANNELS 3 Zrotation Yrotation Xrotation
					End Site
					{
						OFFSET 0.000000 0.000000 0.000000
					}
				}
			}
			JOINT RightUpLegEnd
			{
				OFFSET 0.000000 0.000000 0.000000
				CHANNELS 3 Zrotation Yrotation Xrotation
				End Site
				{
					OFFSET 0.000000 0.000000 0.000000
				}
			}
		}
	}
	JOINT LeftUpLeg
	{
		OFFSET 11.315661 -0.000000 -0.000000
		CHANNELS 3 Zrotation Yrotation Xrotation
		JOINT LeftLeg
		{
			OFFSET -0.000000 -38.200325 0.000000
			CHANNELS 3 Zrotation Yrotation Xrotation
			JOINT LeftFoot
			{
				OFFSET 0.000000 -39.900856 0.000000
				CHANNELS 3 Zrotation Yrotation Xrotation
				JOINT LeftToeBase
				{
					OFFSET -0.000000 -0.000000 15.261641
					CHANNELS 3 Zrotation Yrotation Xrotation
					JOINT LeftToeBaseEnd
					{
						OFFSET -0.000000 0.000000 7.539996
						CHANNELS 3 Zrotation Yrotation Xrotation
						End Site
						{
							OFFSET 0.000000 0.000000 0.000000
						}
					}
				}
				JOINT LeftLegEnd
				{
					OFFSET 0.000000 0.000000 0.000000
					CHANNELS 3 Zrotation Yrotation Xrotation
					End Site
					{
						OFFSET 0.000000 0.000000 0.000000
					}
				}
			}
			JOINT LeftUpLegEnd
			{
				OFFSET 0.000000 0.000000 0.000000
				CHANNELS 3 Zrotation Yrotation Xrotation
				End Site
				{
					OFFSET 0.000000 0.000000 0.000000
				}
			}
		}
	}
}
MOTION
Frames: 4
Frame Time: 0.016667
0.125245 88.705444 4.790124 -0.159985 -0.033370 -11.781847 0.711507 0.048634 8.078005 -0.198821 0.027677 1.825923 -0.415507 -0.711662 6.073603 -0.744023 -0.035091 3.117518 1.924683 -0.314981 5.148371 0.302797 0.728496 -3.191888 -0.040382 -0.783185 -19.035774 0.000000 0.000000 0.000000 92.843346 -0.556390 11.132437 64.644859 -38.874157 6.961634 -0.097803 10.562322 22.441694 6.944222 19.247320 -5.097725 11.536110 -1.910869 39.476406 0.000000 0.000000 -28.080000 0.000000 0.000000 -19.500000 0.000000 0.000000 0.000000 17.623116 0.000000 -9.081764 12.336179 0.000000 0.000000 12.336179 0.000000 0.000000 0.000000 0.000000 0.000000 16.240582 0.000000 -9.968869 11.368404 0.000000 0.000000 11.368404 0.000000 0.000000 0.000000 0.000000 0.000000 16.965736 0.000000 -9.385633 11.876018 0.000000 0.000000 11.876018 0.000000 0.000000 0.000000 0.000000 0.000000 16.804548 0.000000 -10.297279 11.763183 0.000000 0.000000 11.763183 0.000000 0.000000 0.000000 0.000000 0.000000 0.000000 0.000000 0.000000 0.000000 0.000000 0.000000 -90.619240 0.066036 5.768501 -66.621040 33.825867 -0.889513 -0.593176 -5.835401 41.090038 -1.449726 -22.811501 -14.298680 -11.236529 1.888869 39.607235 0.000000 0.000000 -27.360001 0.000000 0.000000 -18.999998 0.000000 0.000000 0.000000 -16.770184 0.000000 -11.469018 -11.739126 0.000000 0.000000 -11.739126 0.000000 0.000000 0.000000 0.000000 0.000000 -15.346850 -0.000000 -11.849414 -10.742795 0.000000 0.000000 -10.742795 0.000000 0.000000 0.000000 0.000000 0.000000 -15.680252 0.000000 -11.872455 -10.976175 0.000000 0.000000 -10.976175 0.000000 0.000000 0.000000 0.000000 0.000000 -14.855722 0.000000 -11.954432 -10.399003 0.000000 0.000000 -10.399003 0.000000 0.000000 0.000000 0.000000 0.000000 0.000000 0.000000 0.000000 0.000000 0.000000 0.000000 -4.637477 -13.316838 15.944229 -0.073349 -1.007125 4.322308 0.868986 -10.819425 19.420246 -1.217299 1.415806 -18.034376 0.000000 0.000000 0.000000 0.000000 0.000000 0.000000 0.000000 0.000000 0.000000 2.533068 -1.088246 10.836284 0.115268 0.653219 9.880169 0.943027 5.988273 17.342060 0.945250 -0.577579 -20.482491 0.000000 0.000000 0.000000 0.000000 0.000000 0.000000 0.000000 0.000000 0.000000 
0.121688 88.738167 4.692060 -0.588948 -0.275074 -12.192368 1.462066 -0.226775 8.022082 -0.216370 -0.002878 2.776249 -0.472868 -0.774253 5.597381 -1.216767 -0.199110 3.538919 2.238203 0.072882 4.464903 0.152586 0.900539 -3.223823 -0.312483 -0.642010 -18.400137 0.000000 0.000000 0.000000 92.548515 -0.469549 11.101138 64.875069 -38.422474 8.160315 -0.053422 11.800351 22.103676 6.932660 18.611345 -4.435679 11.721643 -1.940912 39.383888 -0.000010 0.000028 -28.536659 0.000012 0.000043 -19.814344 0.000005 -0.000003 -0.000028 18.075245 -0.020466 -9.205504 12.223692 0.000123 -0.173975 12.285642 0.017466 -0.153288 -0.000031 0.000033 -0.000024 16.888487 -0.011986 -10.079096 11.340503 -0.001785 -0.058980 11.468413 0.007606 -0.048521 0.000021 0.000112 0.000008 17.605865 -0.003587 -9.519136 11.814491 0.014013 0.068518 11.778544 -0.007062 0.052041 -0.000011 0.000266 0.000008 17.206072 0.021481 -10.518734 11.531423 0.019556 0.239729 11.424271 -0.022636 0.194612 0.000083 -0.000002 0.000047 0.000000 0.000000 0.000000 0.000000 0.000000 0.000000 -89.790741 0.116071 7.335879 -67.356079 31.609581 -2.721032 -0.461598 -6.575457 41.943768 -1.224199 -20.723972 -14.633859 -11.237798 1.896545 39.592468 0.000002 0.000020 -27.337959 0.000028 -0.000024 -19.003681 -0.000582 -0.000003 0.000361 -17.431444 -0.008926 -9.779119 -11.452565 -0.005103 0.154613 -11.626109 0.021556 0.138466 0.000009 -0.000021 -0.000006 -15.946692 0.000906 -10.735402 -10.815821 -0.009930 0.059079 -10.588269 0.006498 0.048981 0.000722 -0.000038 0.000014 -15.583237 0.042487 -11.203815 -10.842495 0.023232 -0.091779 -10.782414 -0.002973 -0.059191 0.000008 0.000008 0.000004 -14.139653 0.080498 -11.783227 -10.236313 0.044084 -0.143684 -10.290699 -0.016484 -0.159664 -0.000127 -0.000008 -0.000031 0.000000 0.000000 0.000000 0.000000 0.000000 0.000000 -4.223279 -12.885770 15.794463 -0.135960 -0.971585 5.054317 0.057374 -10.681202 18.826754 -1.124063 1.094658 -17.888504 0.000000 0.000000 0.000000 0.000000 0.000000 0.000000 0.000000 0.000000 0.000000 3.410721 0.326819 11.169406 0.125029 0.693168 9.570848 0.202874 5.567526 17.877247 0.695356 -0.562709 -19.996973 0.000000 0.000000 0.000000 0.000000 0.000000 0.000000 0.000000 0.000000 0.000000 
0.134420 88.725517 4.682128 -0.579150 -0.264962 -12.265704 1.387809 -0.210171 8.107355 -0.207190 -0.008917 2.825584 -0.465766 -0.824123 5.628916 -1.164662 -0.208009 3.465252 2.244265 0.065386 4.495970 0.165372 0.911486 -3.165896 -0.340655 -0.651950 -18.428814 0.000000 0.000000 0.000000 92.554871 -0.451723 11.135814 64.721199 -38.348454 8.217720 -0.074389 11.824554 22.437334 6.840583 18.445238 -4.630633 11.681696 -1.937269 39.401886 -0.000011 0.000044 -28.433636 0.000018 0.000038 -19.749889 0.000016 0.000003 -0.000042 17.987400 -0.018079 -9.118878 12.179582 0.001134 -0.175886 12.239873 0.018163 -0.155304 -0.000010 0.000045 -0.000021 16.826338 -0.011026 -10.014236 11.286854 -0.002337 -0.058602 11.410398 0.007331 -0.048222 0.000017 0.000094 -0.000004 17.497553 -0.004927 -9.473178 11.729755 0.014625 0.064081 11.705069 -0.006836 0.049423 -0.000015 0.000292 -0.000003 17.110544 0.017493 -10.490075 11.458829 0.023247 0.226698 11.353912 -0.020129 0.183834 0.000105 0.000005 0.000041 0.000000 0.000000 0.000000 0.000000 0.000000 0.000000 -89.724922 0.089382 7.308999 -67.717987 31.317457 -3.012833 -0.410246 -6.621862 42.249699 -1.105767 -20.540258 -14.806125 -11.181767 1.887867 39.615387 0.000016 0.000024 -27.207310 0.000018 -0.000017 -18.920694 -0.000655 0.000007 0.000355 -17.269245 -0.005001 -9.614584 -11.414990 -0.005663 0.151146 -11.592304 0.021982 0.132611 0.000018 -0.000120 0.000000 -15.842254 0.002915 -10.642467 -10.806071 -0.009967 0.056562 -10.573321 0.006533 0.047716 0.000814 -0.000037 -0.000006 -15.541451 0.042603 -11.173273 -10.861667 0.023397 -0.088117 -10.798765 -0.003037 -0.057392 -0.000037 0.000011 0.000009 -14.139001 0.081898 -11.832082 -10.276943 0.043393 -0.131141 -10.317019 -0.017265 -0.153094 -0.000157 0.000008 -0.000047 0.000000 0.000000 0.000000 0.000000 0.000000 0.000000 -4.269178 -12.902020 15.897080 -0.132051 -0.963293 5.008848 0.073144 -10.638702 18.848614 -1.114173 1.099158 -17.939081 0.000000 0.000000 0.000000 0.000000 0.000000 0.000000 0.000000 0.000000 0.000000 3.419947 0.336778 11.246381 0.120093 0.684960 9.575690 0.204500 5.567108 17.871340 0.691483 -0.563368 -20.004955 0.000000 0.000000 0.000000 0.000000 0.000000 0.000000 0.000000 0.000000 0.000000 
0.147199 88.711723 4.666551 -0.534957 -0.255356 -12.299325 1.300628 -0.189659 8.174138 -0.195678 -0.014470 2.842543 -0.476876 -0.824735 5.656045 -1.133433 -0.211403 3.408602 2.218277 0.051572 4.445705 0.180024 0.899864 -3.163295 -0.346102 -0.662793 -18.451986 0.000000 0.000000 0.000000 92.520638 -0.433176 11.163382 64.707748 -38.168186 8.148789 -0.092085 11.975188 22.958546 6.615285 18.339279 -4.759056 11.623270 -1.931890 39.426556 -0.000007 0.000043 -28.304613 0.000015 0.000039 -19.658438 0.000016 0.000003 -0.000042 17.795794 -0.017624 -9.098487 12.116894 0.001059 -0.176069 12.170758 0.018280 -0.155676 -0.000008 0.000044 -0.000023 16.650537 -0.010685 -10.014574 11.228052 -0.003055 -0.057158 11.347845 0.006763 -0.047241 0.000017 0.000092 -0.000002 17.323225 -0.005013 -9.498469 11.655552 0.015600 0.059685 11.639575 -0.006023 0.046504 -0.000013 0.000307 -0.000003 16.937801 0.016999 -10.544420 11.401073 0.026913 0.212523 11.297076 -0.018170 0.171153 0.000117 0.000005 0.000031 0.000000 0.000000 0.000000 0.000000 0.000000 0.000000 -89.595222 0.076040 7.297591 -68.081291 30.945276 -3.302372 -0.381772 -6.770979 42.581093 -1.070370 -20.363798 -14.873605 -11.107882 1.879804 39.644691 0.000014 0.000025 -27.048670 0.000013 -0.000017 -18.810066 -0.000780 0.000007 0.000387 -16.971949 -0.004900 -9.441524 -11.316617 -0.007461 0.141729 -11.496965 0.020840 0.120748 0.000015 -0.000232 0.000001 -15.597200 0.003493 -10.540508 -10.731631 -0.010544 0.051366 -10.505279 0.006161 0.043867 0.000842 -0.000037 -0.000014 -15.376840 0.043965 -11.167465 -10.829788 0.024063 -0.081201 -10.761679 -0.002595 -0.052556 -0.000028 0.000011 0.000009 -14.060124 0.085260 -11.925690 -10.281381 0.045180 -0.109164 -10.318779 -0.016272 -0.134723 -0.000196 0.000007 -0.000048 0.000000 0.000000 0.000000 0.000000 0.000000 0.000000 -4.334036 -12.878831 15.986067 -0.130130 -0.959077 4.959403 0.100203 -10.607870 18.847258 -1.109719 1.103577 -17.990255 0.000000 0.000000 0.000000 0.000000 0.000000 0.000000 0.000000 0.000000 0.000000 3.386089 0.306872 11.291396 0.116846 0.680743 9.573244 0.195198 5.555576 17.872749 0.685907 -0.564521 -20.015690 0.000000 0.000000 0.000000 0.000000 0.000000 0.000000 0.000000 0.000000 0.000000 
